<svg id="Layer_1" data-name="Layer 1" xmlns="http://www.w3.org/2000/svg" viewBox="0 0 610.03 298.39"><defs><style>.cls-1{fill:#ffec00;}.cls-2{fill:#fff;}</style></defs><path class="cls-1" d="M429.12,447.41a92.56,92.56,0,0,0-81,47.77,33.63,33.63,0,0,1,7.87-.93h5.64a33.33,33.33,0,0,1,30.23,19.26,45.72,45.72,0,0,1,75.9,2,33.57,33.57,0,0,1,31.08-21.24h3.47a32.88,32.88,0,0,1,7.88,1A92.55,92.55,0,0,0,429.12,447.41Z" transform="translate(-240.26 -390.8)"/><path class="cls-1" d="M488.59,667.36a33.07,33.07,0,0,1-23.91,10.15h-14a33.32,33.32,0,0,1-23.56-9.77,33.29,33.29,0,0,1-23.58,9.77h-12.9a33.25,33.25,0,0,1-22.78-9.13,34,34,0,0,1-6.34,4.68,149.4,149.4,0,0,0,134.69.2A33.13,33.13,0,0,1,488.59,667.36Z" transform="translate(-240.26 -390.8)"/><path class="cls-1" d="M289.71,494.31h19.38a33.29,33.29,0,0,1,15.42,3.77,112.69,112.69,0,0,1,209.2-.05A33.22,33.22,0,0,1,549,494.31h19.37c.94,0,1.88,0,2.8.12a149.24,149.24,0,0,0-284.19,0C287.91,494.35,288.81,494.31,289.71,494.31Z" transform="translate(-240.26 -390.8)"/><path class="cls-2" d="M429.12,565.75A25.75,25.75,0,1,0,403.37,540,25.75,25.75,0,0,0,429.12,565.75Zm73.16-51.5h-3.47A13.35,13.35,0,0,0,486,523.82L457.18,621.5a1.56,1.56,0,0,1-3,0l-12.52-40.39A13.24,13.24,0,0,0,429,571.81h-1.34a13.24,13.24,0,0,0-12.61,9.2l-12.87,40.26a1.56,1.56,0,0,1-3-.09L374.54,524.3a13.36,13.36,0,0,0-12.94-10H356a13.16,13.16,0,0,0-12.62,16.91l34.72,116.93a13.16,13.16,0,0,0,12.62,9.42h12.9a13.33,13.33,0,0,0,13.12-10.92l10-39.59h.66l10.28,39.68a13.36,13.36,0,0,0,13.11,10.83h14a13.16,13.16,0,0,0,12.53-9.13l37.6-116.94A13.16,13.16,0,0,0,502.28,514.25Zm-180.56,9.36a13.23,13.23,0,0,0-12.63-9.3H289.71a13.23,13.23,0,0,0-12.63,9.3L240.89,639.79a13.66,13.66,0,0,0,13.05,17.72H258a13.53,13.53,0,0,0,13.11-10.17l16-62.33c3.12-12.28,6.82-26.38,10-39.69a1.65,1.65,0,0,1,3.2,0c2.6,10.08,7.59,29.45,10.2,39.72l15.89,62.31a13.53,13.53,0,0,0,13.11,10.19h5.29a13.66,13.66,0,0,0,13-17.72ZM836.61,630.33H787.14a1.55,1.55,0,0,1-1.55-1.55V598.93a1.55,1.55,0,0,1,1.55-1.55h38a13.59,13.59,0,1,0,0-27.18h-38a1.55,1.55,0,0,1-1.55-1.55V543a1.56,1.56,0,0,1,1.55-1.56H835a13.13,13.13,0,0,0,13.13-13.13v-.55a13.49,13.49,0,0,0-13.49-13.49h-67.9a13.53,13.53,0,0,0-13.53,13.53V644a13.53,13.53,0,0,0,13.53,13.53h70.1A13.49,13.49,0,0,0,850.3,644,13.69,13.69,0,0,0,836.61,630.33ZM581,523.61a13.23,13.23,0,0,0-12.63-9.3H549a13.23,13.23,0,0,0-12.63,9.3L500,640.59a13,13,0,0,0,12.45,16.92h5.25a13.14,13.14,0,0,0,12.73-9.87L546.48,585c3.11-12.28,6.79-26.39,10-39.7a1.65,1.65,0,0,1,3.2,0c2.61,10.08,7.62,29.45,10.23,39.73l16,62.61a13.14,13.14,0,0,0,12.73,9.89H605a13,13,0,0,0,12.45-16.92Zm120.23,48.24a1,1,0,0,1,.08-1.13l26.91-35.45a13.06,13.06,0,0,0-10.4-21h-3a13.16,13.16,0,0,0-10.65,5.44L667,571.3a1,1,0,0,1-1.88-.61v-43a13.34,13.34,0,0,0-13.34-13.34h-6.36a13.09,13.09,0,0,0-13.09,13.09v117a13.09,13.09,0,0,0,13.09,13.09H652a13.22,13.22,0,0,0,13.21-13.21V618.75a1,1,0,0,1,.21-.63l15.35-20.22a1,1,0,0,1,1.75.16l26.11,52.14a13.24,13.24,0,0,0,11.83,7.31h5.72a13.06,13.06,0,0,0,11.46-19.34Z" transform="translate(-240.26 -390.8)"/></svg>