<svg id="Layer_1" data-name="Layer 1" xmlns="http://www.w3.org/2000/svg" viewBox="0 0 610.03 298.39"><defs><style>.cls-1{fill:#ffce00;}.cls-2{fill:#fff;}</style></defs><path class="cls-1" d="M188.85,56.61a92.55,92.55,0,0,0-81,47.77,33.7,33.7,0,0,1,7.87-.94h5.64a33.34,33.34,0,0,1,30.24,19.27,45.71,45.71,0,0,1,75.9,2,33.57,33.57,0,0,1,31.07-21.24H262a33,33,0,0,1,7.89,1A92.56,92.56,0,0,0,188.85,56.61Z"/><path class="cls-1" d="M248.33,276.55a33.08,33.08,0,0,1-23.91,10.16h-14a33.36,33.36,0,0,1-23.57-9.77,33.29,33.29,0,0,1-23.58,9.77H150.42a33.28,33.28,0,0,1-22.79-9.13,33.6,33.6,0,0,1-6.33,4.67,149.44,149.44,0,0,0,134.69.21A33.17,33.17,0,0,1,248.33,276.55Z"/><path class="cls-1" d="M49.45,103.51H68.82a33.29,33.29,0,0,1,15.43,3.76,112.69,112.69,0,0,1,209.19,0,33.28,33.28,0,0,1,15.33-3.71h19.38c.94,0,1.87,0,2.8.11a149.24,149.24,0,0,0-284.19,0C47.65,103.54,48.54,103.51,49.45,103.51Z"/><path class="cls-2" d="M188.85,175A25.76,25.76,0,1,0,163.1,149.2,25.75,25.75,0,0,0,188.85,175ZM262,123.44h-3.47a13.34,13.34,0,0,0-12.8,9.58L216.91,230.7a1.56,1.56,0,0,1-3,0l-12.52-40.4A13.23,13.23,0,0,0,188.76,181h-1.34a13.23,13.23,0,0,0-12.6,9.2L162,230.46a1.56,1.56,0,0,1-3-.09L134.27,133.5a13.35,13.35,0,0,0-12.94-10.06h-5.64a13.16,13.16,0,0,0-12.61,16.91L137.8,257.29a13.17,13.17,0,0,0,12.62,9.42h12.89a13.36,13.36,0,0,0,13.13-10.93l10-39.59h.66l10.28,39.68a13.34,13.34,0,0,0,13.11,10.84h14A13.17,13.17,0,0,0,237,257.57l37.59-116.93A13.17,13.17,0,0,0,262,123.44ZM81.46,132.8a13.24,13.24,0,0,0-12.64-9.29H49.45a13.22,13.22,0,0,0-12.64,9.29L.63,249a13.66,13.66,0,0,0,13,17.73h4.11a13.52,13.52,0,0,0,13.1-10.17l16-62.33c3.11-12.28,6.81-26.39,10-39.7a1.65,1.65,0,0,1,3.2,0c2.6,10.08,7.59,29.44,10.2,39.72L86.2,256.52a13.53,13.53,0,0,0,13.11,10.19h5.28a13.66,13.66,0,0,0,13-17.73ZM596.35,239.53H546.88a1.55,1.55,0,0,1-1.55-1.55V208.13a1.55,1.55,0,0,1,1.55-1.56h38a13.59,13.59,0,1,0,0-27.17h-38a1.55,1.55,0,0,1-1.55-1.55V152.23a1.55,1.55,0,0,1,1.55-1.55H594.7a13.14,13.14,0,0,0,13.14-13.14V137a13.49,13.49,0,0,0-13.49-13.49h-67.9A13.53,13.53,0,0,0,512.91,137V253.17a13.54,13.54,0,0,0,13.54,13.54h70.09A13.5,13.5,0,0,0,610,253.21,13.68,13.68,0,0,0,596.35,239.53ZM340.78,132.8a13.22,13.22,0,0,0-12.63-9.29H308.77a13.22,13.22,0,0,0-12.63,9.29l-36.44,117a13,13,0,0,0,12.45,16.92h5.26a13.14,13.14,0,0,0,12.72-9.88l16.08-62.62c3.12-12.28,6.8-26.39,10-39.7a1.65,1.65,0,0,1,3.2,0c2.61,10.08,7.61,29.45,10.22,39.73l16,62.6a13.14,13.14,0,0,0,12.73,9.9h6.43a13,13,0,0,0,12.45-16.92ZM461,181a1,1,0,0,1,.09-1.12L488,144.47a13.06,13.06,0,0,0-10.41-21h-3A13.12,13.12,0,0,0,464,129l-37.22,51.54a1,1,0,0,1-1.87-.6v-43a13.35,13.35,0,0,0-13.35-13.34h-6.36a13.08,13.08,0,0,0-13.08,13.08v117a13.09,13.09,0,0,0,13.08,13.09h6.49a13.22,13.22,0,0,0,13.22-13.22V228a1,1,0,0,1,.21-.63l15.35-20.22a1,1,0,0,1,1.75.16l26.11,52.14a13.23,13.23,0,0,0,11.83,7.31h5.72a13.06,13.06,0,0,0,11.45-19.34Z"/></svg>